<svg width="35" height="24" viewBox="0 0 35 24" fill="none" xmlns="http://www.w3.org/2000/svg">
<path d="M27.7808 15.6051C27.8751 15.6858 27.947 15.7495 28.0234 15.8131C28.3962 16.1444 28.8005 16.3991 29.2902 16.4671C29.7844 16.535 30.2695 16.5308 30.6873 16.1698C30.8895 16 31.0198 15.7749 31.0512 15.5032C31.0692 15.3758 31.0422 15.2272 30.9838 15.121C30.8535 14.8577 30.6199 14.6964 30.3774 14.5647C29.9551 14.3354 29.5238 14.1359 29.1105 13.8938C28.8634 13.7495 28.6164 13.5796 28.4097 13.3715C27.92 12.8747 27.911 12.1104 28.3513 11.5626C28.6658 11.1635 29.088 10.9724 29.5508 10.9172C30.1033 10.8407 30.6604 10.879 31.2084 11.0191C31.3971 11.07 31.4061 11.0955 31.4061 11.3036C31.4061 11.5711 31.4061 11.8429 31.4016 12.1104C31.4016 12.1656 31.3926 12.225 31.3836 12.3015C31.3342 12.2633 31.3118 12.2378 31.2848 12.2081C30.9569 11.8938 30.5705 11.7367 30.1393 11.7155C29.8607 11.6985 29.5822 11.7155 29.3127 11.8174C29.1554 11.8811 29.0162 11.9703 28.9353 12.1401C28.8095 12.3821 28.832 12.5817 29.0072 12.7855C29.2138 13.0276 29.4744 13.1762 29.7484 13.3078C30.2156 13.5414 30.6963 13.7664 31.1545 14.034C32.0395 14.5605 31.9991 15.5371 31.6891 16.0849C31.442 16.5265 31.0692 16.811 30.6334 17.0148C30.0135 17.2993 29.3756 17.2611 28.7421 17.1465C28.549 17.1125 28.3513 17.0616 28.1626 17.0021C28.1087 16.9851 28.0413 16.9257 28.0323 16.8705C27.9425 16.4756 27.8661 16.0722 27.7808 15.6773C27.7673 15.6773 27.7718 15.6603 27.7808 15.6051Z" fill="white"/>
<path d="M7.99641 17.104C8.09524 16.9851 8.18509 16.862 8.2929 16.7473C8.32435 16.7134 8.39173 16.7134 8.44564 16.7134C10.602 16.7134 12.7583 16.7176 14.9146 16.7261C15.4627 16.7261 16.0063 16.7303 16.5544 16.7643C16.8284 16.7813 17.1024 16.8577 17.363 16.9342C17.6505 17.0276 17.8751 17.2187 17.9739 17.5838C18.0054 17.5329 18.0279 17.5074 18.0368 17.4819C18.1581 17.1762 18.3783 17.0106 18.6568 16.9129C19.0701 16.7686 19.4969 16.7473 19.9236 16.7473C22.3944 16.7346 24.8697 16.7303 27.345 16.7176C27.4124 16.7176 27.4753 16.7218 27.5472 16.7134C27.6505 16.6964 27.7134 16.7303 27.7224 16.8577C27.7224 16.8875 27.7314 16.9087 27.7403 16.9384C27.7898 17.172 27.7898 17.1804 27.5606 17.2017C27.3675 17.2187 27.1788 17.2314 26.9811 17.2314C24.5328 17.2356 22.0845 17.2356 19.6361 17.2356C19.2318 17.2356 18.841 17.3291 18.4995 17.5754C18.257 17.7537 18.0952 17.9957 18.0279 18.3015C18.0234 18.3227 18.0189 18.3397 18.0054 18.3652C18.0054 18.3694 17.9964 18.3779 17.9784 18.3864C17.9695 18.3524 17.947 18.3227 17.9425 18.2887C17.8437 17.8514 17.5696 17.5838 17.2013 17.414C16.9182 17.2824 16.6128 17.2356 16.3073 17.2314C14.9416 17.2272 13.5714 17.2356 12.2058 17.2356C11.0288 17.2314 9.85175 17.2187 8.67925 17.2017C8.45912 17.1974 8.23899 17.1677 8.01887 17.1465C8.0009 17.1337 7.99641 17.1168 7.99641 17.104Z" fill="white"/>
<path d="M14.5058 14.017C14.5642 14.0128 14.5957 14 14.6271 14C14.9596 14 15.283 14 15.6155 14C15.7053 14 15.7367 14.0297 15.7367 14.1317C15.7367 14.8196 15.7367 15.5032 15.7367 16.1869C15.7367 16.3015 15.7008 16.3567 15.584 16.3864C15.0314 16.5053 14.4744 16.5563 13.9128 16.5223C13.3199 16.4883 12.7493 16.3312 12.2686 15.9193C11.2893 15.0998 11.2219 13.4395 12.1339 12.4883C12.5651 12.034 13.0952 11.8132 13.6837 11.7452C14.1959 11.69 14.7035 11.707 15.2066 11.8132C15.265 11.8259 15.31 11.8302 15.31 11.9151C15.301 12.1826 15.2875 12.4501 15.2785 12.7389C15.2201 12.7219 15.1752 12.7176 15.1303 12.7007C14.6496 12.5308 14.1689 12.4247 13.6613 12.4841C12.4618 12.6285 12.08 13.8896 12.5427 14.8493C12.9021 15.5881 13.4996 15.8939 14.2453 15.8684C14.4295 15.8641 14.6137 15.8174 14.7978 15.8004C14.8877 15.7877 14.9146 15.7452 14.9102 15.6518C14.9102 15.3121 14.9146 14.9682 14.9102 14.6327C14.9102 14.569 14.8787 14.4968 14.8428 14.4416C14.7394 14.2973 14.6271 14.1656 14.5058 14.017Z" fill="white"/>
<path d="M19.2857 16.3015C19.3801 16.2166 19.4744 16.1232 19.5822 16.0425C19.6676 15.9745 19.7035 15.8939 19.699 15.7792C19.6945 14.6539 19.699 13.5372 19.699 12.4161C19.699 12.3015 19.6676 12.2166 19.5867 12.1486C19.5193 12.0934 19.4564 12.034 19.389 11.9703C19.398 11.9575 19.4115 11.9491 19.416 11.9406C19.4205 11.9363 19.425 11.9236 19.434 11.9236C19.7394 11.9236 20.0449 11.9108 20.3414 11.9236C20.4043 11.9236 20.4717 12 20.5211 12.051C21.1725 12.7686 21.8194 13.482 22.4708 14.2038C22.5022 14.2378 22.5112 14.2888 22.5337 14.3312C22.5562 14.3185 22.5741 14.3015 22.5966 14.293C22.5966 14.2251 22.5966 14.1571 22.5966 14.0849C22.5966 13.4565 22.5966 12.8195 22.5966 12.1868C22.5966 11.8641 22.5786 11.9236 22.8392 11.9193C23.0952 11.9193 23.3558 11.9193 23.6119 11.9193C23.6164 11.9321 23.6208 11.9406 23.6298 11.9576C23.5624 12.0128 23.4995 12.0764 23.4322 12.1274C23.3199 12.2081 23.2839 12.31 23.2839 12.4586C23.2884 13.69 23.2839 14.9215 23.2839 16.1614C23.2839 16.2378 23.2839 16.31 23.2839 16.3864C23.2659 16.3907 23.257 16.4034 23.2435 16.4077C22.3136 15.3079 21.3836 14.2081 20.4313 13.0828C20.4268 13.1635 20.4223 13.2144 20.4223 13.2612C20.4223 14.2336 20.4223 15.2102 20.4223 16.1784C20.4223 16.3057 20.3953 16.3482 20.2695 16.3482C19.9955 16.3355 19.717 16.3482 19.4429 16.344C19.4025 16.344 19.3531 16.3397 19.3127 16.3397C19.2992 16.327 19.2902 16.3142 19.2857 16.3015Z" fill="white"/>
<path d="M23.8544 16.2802C24.1824 15.932 24.1869 15.5074 24.1869 15.0828C24.1914 14.3949 24.1914 13.7112 24.1914 13.0276C24.1914 12.3906 24.1914 12.3906 23.8769 11.8853C23.9173 11.8811 23.9488 11.8726 23.9892 11.8726C24.6047 11.8726 25.2156 11.8896 25.8311 11.8726C27.2057 11.8386 28.1222 13.3036 27.6101 14.7601C27.372 15.431 26.9632 15.9363 26.3342 16.1826C26.186 16.2378 26.0243 16.276 25.867 16.276C25.2381 16.293 24.6092 16.293 23.9802 16.2972C23.9353 16.2972 23.9128 16.2845 23.8544 16.2802ZM24.9236 14.1146C24.9236 14.3567 24.9236 14.6029 24.9236 14.8407C24.9236 15.087 24.9281 15.3333 24.9236 15.5796C24.9236 15.6815 24.9461 15.7282 25.0494 15.7155C25.2426 15.6942 25.4403 15.6985 25.6289 15.6688C26.0018 15.6136 26.3522 15.4904 26.6262 15.1932C26.9677 14.8153 27.0305 14.3439 26.9766 13.8471C26.9093 13.1465 26.5633 12.7176 25.9299 12.5817C25.6514 12.518 25.3549 12.5308 25.0719 12.501C24.9551 12.4883 24.9146 12.535 24.9146 12.6666C24.9281 13.1465 24.9236 13.6263 24.9236 14.1146Z" fill="white"/>
<path d="M4.68554 17.3249C4.82031 17.1423 4.93711 16.9767 5.06289 16.828C5.18868 16.6794 5.22911 16.5181 5.22911 16.3185C5.22462 14.828 5.22911 13.3376 5.2336 11.8472C5.2336 11.6136 5.18419 11.4183 5.03594 11.2527C4.96855 11.1762 4.91465 11.0913 4.83828 10.9852C4.91015 10.9809 4.95508 10.9682 4.99102 10.9682C5.32345 10.9682 5.6469 10.9724 5.97934 10.9639C6.09614 10.9639 6.12758 11.0021 6.12758 11.1253C6.12309 12.8111 6.12758 14.5011 6.12758 16.1869C6.12758 16.3949 6.12758 16.3949 6.31177 16.3949C6.89129 16.3949 7.46182 16.3949 8.04133 16.3949C8.09075 16.3949 8.13567 16.3992 8.20755 16.4077C8.16712 16.4714 8.14465 16.5096 8.1177 16.5435C7.92902 16.7856 7.74484 17.0234 7.55166 17.2527C7.51572 17.2994 7.43935 17.3334 7.38545 17.3376C6.5319 17.3503 5.67835 17.3503 4.82031 17.3503C4.78437 17.3418 4.75292 17.3334 4.68554 17.3249Z" fill="white"/>
<path d="M11.9407 16.2845C10.7592 16.2845 9.57323 16.2845 8.36029 16.2845C8.48158 16.1486 8.58042 16.0255 8.68823 15.9193C8.76011 15.8429 8.79156 15.758 8.79156 15.6433C8.79156 14.6157 8.79156 13.5881 8.79605 12.5605C8.79605 12.4331 8.7691 12.327 8.69273 12.2293C8.61186 12.1316 8.54448 12.017 8.45463 11.8896C8.51303 11.8854 8.55346 11.8726 8.5894 11.8726C9.42947 11.8726 10.2785 11.8726 11.1186 11.8726C11.2803 11.8726 11.2803 11.8726 11.2803 12.0552C11.2803 12.2548 11.2803 12.4544 11.2803 12.6624C11.2803 12.7006 11.2758 12.7474 11.2713 12.828C11.1995 12.7601 11.1545 12.7006 11.0961 12.6624C11.0288 12.6242 10.9524 12.569 10.8805 12.569C10.4897 12.5563 10.0988 12.569 9.708 12.5648C9.61366 12.5648 9.57772 12.5945 9.57772 12.7006C9.58221 12.9342 9.58221 13.1762 9.57772 13.4098C9.57772 13.5117 9.61366 13.5414 9.70351 13.5372C9.96856 13.5329 10.2291 13.5372 10.4942 13.5372C10.5795 13.5372 10.6155 13.5669 10.611 13.6646C10.6065 13.8174 10.6065 13.9788 10.611 14.1359C10.6155 14.2463 10.575 14.2718 10.4807 14.2718C10.2246 14.2675 9.96856 14.276 9.71249 14.2675C9.61366 14.2675 9.57772 14.2972 9.58221 14.4119C9.58671 14.7728 9.58221 15.1295 9.58671 15.4905C9.58671 15.6688 9.58671 15.6688 9.74843 15.6688C10.2606 15.6688 10.7682 15.673 11.2803 15.6688C11.4016 15.6688 11.4915 15.7028 11.5768 15.8047C11.7026 15.9575 11.8419 16.1104 11.9766 16.259C11.9587 16.2633 11.9497 16.276 11.9407 16.2845Z" fill="white"/>
<path d="M20.3953 9.01485C20.4492 9.00211 20.4807 8.99786 20.5121 8.99786C20.7862 8.99786 21.0647 8.99786 21.3387 8.99786C21.4286 8.99786 21.46 9.03183 21.46 9.1295C21.4555 9.73247 21.46 10.3312 21.46 10.9342C21.46 10.9979 21.4645 11.0616 21.3792 11.0785C20.6739 11.1974 19.9641 11.2951 19.2588 11.1083C18.6613 10.9427 18.1761 10.603 17.9111 9.97451C17.4573 8.89595 17.9425 7.63481 18.9712 7.20593C19.6316 6.92992 20.3055 6.94691 20.9883 7.0743C21.0198 7.07854 21.0602 7.13799 21.0602 7.16772C21.0647 7.36305 21.0647 7.54988 21.0602 7.74521C21.0557 7.89383 21.0332 7.90657 20.903 7.85561C20.5211 7.71124 20.1303 7.63056 19.726 7.66453C18.558 7.75795 18.248 8.94691 18.6703 9.77493C19.0162 10.4458 19.5732 10.6709 20.2426 10.6327C20.3774 10.6284 20.5121 10.586 20.6424 10.5647C20.7098 10.552 20.7367 10.5138 20.7367 10.4331C20.7323 10.1359 20.7412 9.84288 20.7323 9.54564C20.7323 9.48194 20.6828 9.414 20.6469 9.36304C20.5795 9.23141 20.4897 9.13375 20.3953 9.01485Z" fill="white"/>
<path d="M16.0737 11.8896C16.1366 11.8853 16.177 11.8768 16.2174 11.8768C17.0575 11.8768 17.9066 11.8768 18.7466 11.8768C18.8724 11.8768 18.9084 11.915 18.9039 12.0552C18.8949 12.3057 18.9039 12.5647 18.9039 12.8153C18.8949 12.8195 18.8814 12.828 18.8724 12.8322C18.8185 12.777 18.7736 12.7049 18.7152 12.6624C18.6568 12.6157 18.5894 12.569 18.522 12.569C18.1222 12.5647 17.7224 12.569 17.3226 12.5647C17.2327 12.5647 17.1968 12.5945 17.2013 12.6964C17.2058 12.9384 17.2058 13.1847 17.2013 13.4225C17.2013 13.5201 17.2372 13.5414 17.3181 13.5414C17.5831 13.5371 17.8437 13.5414 18.1087 13.5414C18.1986 13.5414 18.2345 13.5753 18.23 13.673C18.2255 13.8259 18.2255 13.9872 18.23 14.1443C18.2345 14.2463 18.1941 14.276 18.1042 14.276C17.8482 14.2717 17.5831 14.276 17.327 14.2717C17.2372 14.2717 17.1968 14.2887 17.1968 14.4034C17.2013 14.7813 17.2013 15.155 17.1968 15.5329C17.1968 15.6433 17.2327 15.6688 17.327 15.6688C17.8527 15.6645 18.3783 15.6688 18.9084 15.6688C18.9623 15.6688 19.0117 15.6815 19.097 15.6857C19.0252 15.8174 18.9533 15.915 18.9084 16.0255C18.814 16.2378 18.6658 16.3057 18.4456 16.3015C17.6819 16.2845 16.9227 16.2972 16.1635 16.2972C16.1141 16.2972 16.0692 16.2972 16.0198 16.2972C16.0153 16.2845 16.0108 16.276 15.9973 16.2632C16.0602 16.1953 16.1186 16.1146 16.186 16.0509C16.3702 15.8981 16.4151 15.7027 16.4151 15.4564C16.4061 14.5095 16.4106 13.5669 16.4151 12.6199C16.4151 12.4671 16.3926 12.3354 16.2893 12.2123C16.2219 12.1189 16.159 12.0085 16.0737 11.8896Z" fill="white"/>
<path d="M4.38455 10.7261C4.50584 10.8917 4.60467 11.0318 4.7035 11.1677C4.69901 11.1804 4.69452 11.1974 4.68104 11.2059C4.5328 11.2059 4.39353 11.2102 4.24528 11.2059C4.15544 11.2059 4.06559 11.1932 3.97574 11.1762C3.85894 11.155 3.823 11.2059 3.84097 11.3206C3.90386 11.7919 3.95777 12.259 4.02965 12.7303C4.15544 13.5116 4.46541 14.2165 4.89218 14.8492C4.98652 14.9936 5.02696 15.1337 5.01797 15.3121C5.00899 15.4437 5.01797 15.5753 4.99551 15.7197C4.36658 15.1337 3.89039 14.4373 3.5894 13.6008C3.21204 12.5477 3.18059 11.4564 3.34681 10.3269C3.4142 10.3609 3.46361 10.3821 3.50854 10.4076C3.98023 10.6581 4.46541 10.7643 4.97754 10.5562C6.10063 10.1019 6.32974 8.59445 5.59749 7.84711C5.57502 7.82588 5.56155 7.79615 5.52561 7.7452C5.58401 7.74095 5.62444 7.73246 5.66038 7.73246C6.55885 7.73246 7.45283 7.73246 8.3513 7.72821C8.47709 7.72821 8.51303 7.76643 8.51303 7.90655C8.50404 8.26749 8.54897 8.21653 8.21653 8.21653C7.71788 8.21653 7.21024 8.21653 6.71159 8.21653C6.55436 8.21653 6.54987 8.21653 6.56334 8.38214C6.59928 8.85772 6.58581 9.33331 6.45103 9.7919C6.36119 10.1146 6.20395 10.3864 5.99281 10.6284C5.95687 10.6666 5.8805 10.6836 5.8266 10.6921C5.49416 10.6964 5.15723 10.6921 4.82929 10.6964C4.69452 10.7049 4.55975 10.7133 4.38455 10.7261Z" fill="white"/>
<path d="M25.0854 7.13802C25.0584 7.17624 25.0494 7.19323 25.0359 7.20596C24.8113 7.37157 24.7799 7.60512 24.7844 7.88112C24.7934 8.73887 24.7934 9.60512 24.7844 10.4671C24.7844 10.6327 24.8158 10.7644 24.9371 10.8663C25.009 10.93 25.0809 10.9979 25.1482 11.0616C25.1393 11.0786 25.1303 11.0956 25.1213 11.1125C25.0809 11.1168 25.0359 11.1253 24.9955 11.1253C24.7574 11.1253 24.5283 11.121 24.2902 11.1295C24.1689 11.1338 24.097 11.1083 24.124 10.9597C24.1285 10.9427 24.1195 10.9215 24.106 10.8832C24.0791 10.896 24.0566 10.9045 24.0386 10.9172C23.54 11.2782 23.0009 11.3121 22.4663 11.0531C22.1159 10.8832 21.9048 10.5733 21.8913 10.1359C21.8733 9.33335 21.8598 8.53081 21.8598 7.72826C21.8598 7.53293 21.8194 7.38006 21.6757 7.26541C21.6442 7.24418 21.6173 7.20172 21.5768 7.15076C21.6397 7.14652 21.6757 7.13802 21.7206 7.13802C21.9362 7.13802 22.1474 7.14227 22.363 7.13378C22.4753 7.12953 22.5067 7.16775 22.4978 7.28664C22.4933 8.07221 22.4978 8.85777 22.4933 9.64333C22.4888 10.3482 22.938 10.7134 23.6074 10.5435C24.0117 10.4416 24.1644 10.2293 24.1644 9.77497C24.1644 8.94269 24.1644 8.11467 24.1644 7.28664C24.1644 7.16775 24.1959 7.13378 24.3082 7.13378C24.5193 7.13802 24.7305 7.13378 24.9371 7.13378C24.982 7.12953 25.018 7.13378 25.0854 7.13802Z" fill="white"/>
<path d="M18.1042 11.121C17.8212 11.121 17.5427 11.1253 17.2597 11.1168C17.2192 11.1168 17.1653 11.0361 17.1429 10.9809C16.9901 10.5987 16.8419 10.2123 16.7071 9.82167C16.6577 9.68579 16.5858 9.63059 16.451 9.63908C16.1456 9.65182 15.8401 9.65182 15.5346 9.63908C15.4178 9.63483 15.3684 9.68579 15.3234 9.79195C15.1797 10.1869 15.0359 10.5818 14.8967 10.9852C14.8607 11.0871 14.8068 11.1295 14.708 11.121C14.5508 11.1083 14.389 11.121 14.2093 11.121C14.2273 11.0573 14.2318 11.0106 14.2453 10.9724C14.6721 9.85564 15.0898 8.73887 15.5211 7.62209C15.5615 7.50744 15.5526 7.43101 15.4672 7.35882C15.3998 7.30362 15.3459 7.22719 15.2695 7.14226C15.3324 7.13802 15.3729 7.12528 15.4178 7.12528C15.7143 7.12528 16.0018 7.12953 16.2938 7.12103C16.4061 7.12103 16.46 7.16774 16.5049 7.2739C16.9003 8.32698 17.3001 9.3843 17.6864 10.4374C17.7583 10.637 17.8527 10.8153 18.0009 10.9512C18.0413 10.9894 18.0818 11.0361 18.1177 11.0828C18.1132 11.0998 18.1087 11.1125 18.1042 11.121ZM16.0287 8.03823C16.0198 8.03823 16.0063 8.03823 15.9928 8.03823C15.8715 8.36519 15.7457 8.69216 15.6155 9.03611C15.8805 9.03611 16.1141 9.03611 16.3747 9.03611C16.2534 8.69216 16.1366 8.36519 16.0287 8.03823Z" fill="white"/>
<path d="M11.2624 11.0573C11.3342 10.9936 11.4196 10.9427 11.478 10.862C11.5319 10.7856 11.5813 10.6837 11.5813 10.5945C11.5858 9.67305 11.5768 8.74736 11.5813 7.82592C11.5813 7.6136 11.5454 7.448 11.3881 7.32061C11.3342 7.28239 11.2848 7.23568 11.2309 7.19322C11.2399 7.17623 11.2489 7.15925 11.2579 7.14226C11.2983 7.13802 11.3432 7.12528 11.3792 7.12528C12.1518 7.12528 12.9245 7.12528 13.6972 7.12103C13.8095 7.12103 13.841 7.15925 13.832 7.2739C13.8275 7.5032 13.832 7.7325 13.8275 7.9618C13.8275 8.00851 13.823 8.04672 13.823 8.09343C13.814 8.09768 13.8005 8.11042 13.7916 8.11466C13.7376 8.04672 13.6792 7.98303 13.6343 7.91509C13.531 7.76222 13.3872 7.69853 13.221 7.69853C12.92 7.69853 12.6235 7.70277 12.3226 7.70277C12.2507 7.70277 12.2192 7.7325 12.2237 7.81318C12.2237 8.04248 12.2282 8.27178 12.2237 8.50108C12.2237 8.59449 12.2552 8.62846 12.3405 8.62846C12.5696 8.62422 12.8032 8.62846 13.0279 8.62846C13.1177 8.62846 13.1536 8.65819 13.1536 8.7601C13.1491 8.89173 13.1491 9.01912 13.1536 9.15076C13.1581 9.23568 13.1222 9.26965 13.0413 9.26965C12.8167 9.26965 12.5876 9.2739 12.363 9.26965C12.2686 9.26965 12.2327 9.29938 12.2372 9.40553C12.2417 9.72825 12.2417 10.051 12.2372 10.3737C12.2327 10.5011 12.2776 10.5223 12.3854 10.5223C12.8841 10.5181 13.3783 10.5223 13.8769 10.5223C13.9263 10.5223 13.9712 10.5223 14.0566 10.5223C13.9847 10.7346 13.9218 10.9172 13.85 11.0956C13.841 11.1168 13.796 11.1338 13.7646 11.1338C12.9605 11.1338 12.1608 11.1338 11.3567 11.1338C11.3342 11.1338 11.3208 11.121 11.2983 11.1168C11.2848 11.0956 11.2713 11.0786 11.2624 11.0573Z" fill="white"/>
<path d="M28.2974 10.5563C28.1626 10.7346 28.0234 10.913 27.8841 11.0828C27.8616 11.1125 27.8122 11.121 27.7718 11.121C27.035 11.1253 26.2983 11.1253 25.5615 11.1253C25.5346 11.1253 25.5076 11.1125 25.4492 11.104C25.5211 11.0234 25.575 10.9554 25.6379 10.896C25.7323 10.8026 25.7682 10.6964 25.7682 10.5648C25.7637 9.62633 25.7637 8.67941 25.7682 7.74098C25.7682 7.59236 25.7367 7.47347 25.6244 7.3758C25.5571 7.31211 25.4942 7.24417 25.4223 7.18047C25.4268 7.16773 25.4313 7.15924 25.4402 7.14226C25.4717 7.13801 25.5076 7.12952 25.5391 7.12952C26.3073 7.12952 27.08 7.12952 27.8482 7.12952C28.0234 7.12952 28.0234 7.12952 28.0144 7.31211C28.0144 7.52442 28.0144 7.73674 28.0144 7.94056C28.0144 7.98727 28.0099 8.02548 28.0099 8.10616C27.947 8.05096 27.8931 8.01274 27.8661 7.97028C27.7179 7.74523 27.5247 7.68578 27.2776 7.70277C27.0305 7.724 26.779 7.70701 26.5274 7.70277C26.4331 7.70277 26.3971 7.73674 26.4016 7.83865C26.4061 8.05521 26.4061 8.28026 26.4016 8.49682C26.4016 8.59024 26.4331 8.62421 26.5184 8.62421C26.743 8.61996 26.9721 8.62846 27.1968 8.61996C27.3091 8.61572 27.345 8.65818 27.3315 8.77283C27.327 8.88323 27.327 8.99788 27.3315 9.11253C27.336 9.22294 27.3001 9.2654 27.2013 9.26115C26.9856 9.25691 26.7655 9.26115 26.5499 9.25691C26.4555 9.25691 26.4196 9.28663 26.4241 9.39279C26.4286 9.7155 26.4286 10.0382 26.4241 10.3609C26.4241 10.4756 26.46 10.5053 26.5588 10.5053C27.0889 10.5011 27.619 10.5053 28.1536 10.5053C28.1941 10.5053 28.2435 10.5096 28.2839 10.5096C28.2884 10.5265 28.2929 10.5435 28.2974 10.5563Z" fill="white"/>
<path d="M30.4268 7.73672C29.7889 8.52653 29.726 9.32908 30.3414 10.0849C30.9838 10.8832 31.77 10.7601 32.5651 10.3482C32.9695 11.0361 32.5157 13.9193 31.9048 14.5265C31.7925 14.3906 31.6801 14.259 31.5858 14.1061C31.5588 14.0594 31.5678 13.9703 31.5903 13.9066C31.7161 13.4692 31.8733 13.0488 31.9677 12.5987C32.062 12.1401 32.089 11.6688 32.1518 11.172C31.9991 11.1847 31.8733 11.1762 31.7475 11.2017C31.6307 11.2187 31.5678 11.1889 31.5903 11.0531C31.6083 10.9427 31.5364 10.9172 31.469 10.8832C31.0557 10.6921 30.611 10.6369 30.1662 10.6199C29.9865 10.6157 29.8652 10.5393 29.7709 10.3779C29.5822 10.0509 29.4519 9.71124 29.4609 9.31634C29.4654 9.1847 29.4205 9.05307 29.4115 8.92143C29.4025 8.75583 29.407 8.58173 29.4115 8.41188C29.416 8.21655 29.4205 8.21655 29.2453 8.21655C28.9712 8.21655 28.7017 8.2123 28.4322 8.21655C28.3378 8.21655 28.3019 8.18682 28.3019 8.08067C28.3064 7.66029 28.2615 7.73672 28.6074 7.73247C29.1554 7.72823 29.699 7.73247 30.2471 7.73247C30.292 7.73672 30.3414 7.73672 30.4268 7.73672Z" fill="white"/>
<path d="M8.38724 10.9894C8.45013 10.9384 8.51752 10.879 8.58041 10.828C8.68374 10.7346 8.73315 10.6157 8.73315 10.4799C8.73315 9.38431 8.73315 8.28877 8.72417 7.19747C8.72417 7.12104 8.68374 7.03611 8.63432 6.97242C8.57592 6.89174 8.49057 6.8238 8.41869 6.75586C8.42318 6.74312 8.42767 6.72613 8.43666 6.71764C8.47709 6.7134 8.52201 6.7049 8.56244 6.7049C8.83199 6.7049 9.09703 6.70915 9.36658 6.7049C9.48338 6.70066 9.51482 6.73887 9.51482 6.86626C9.51033 8.0255 9.51482 9.18049 9.51033 10.3397C9.51033 10.5223 9.51033 10.5223 9.67655 10.5223C10.1617 10.5223 10.6379 10.5223 11.1231 10.5223C11.1635 10.5223 11.2084 10.5223 11.2534 10.5223C11.2579 10.5351 11.2624 10.5435 11.2758 10.5605C11.2084 10.6412 11.1276 10.7091 11.0692 10.7941C10.9119 11.0191 10.7188 11.0786 10.4582 11.0743C9.81581 11.0573 9.17341 11.0701 8.53549 11.0701C8.49955 11.0701 8.46361 11.0658 8.43216 11.0658C8.4142 11.0319 8.40072 11.0064 8.38724 10.9894Z" fill="white"/>
<path d="M15.7996 6.81951C16.3747 6.39488 19.2228 6.3142 19.7574 6.70486C19.7035 6.71759 19.6631 6.72184 19.6226 6.73458C19.425 6.78554 19.2228 6.83649 19.0252 6.8832C18.8679 6.91717 18.7062 6.95963 18.54 6.95963C17.947 6.94265 17.3585 6.92566 16.77 7.04031C16.7026 7.05305 16.6532 7.05305 16.6262 6.95963C16.5903 6.83224 16.4825 6.82375 16.3836 6.82375C16.1995 6.8195 16.0108 6.81951 15.7996 6.81951Z" fill="white"/>
<path d="M10.5121 7.73674C10.7367 7.73674 10.9659 7.73674 11.1905 7.73674C11.2758 7.73674 11.3163 7.75797 11.3163 7.86413C11.3208 8.22507 11.3252 8.22507 10.9973 8.22507C10.6155 8.22507 10.2291 8.22082 9.85175 8.22507C9.75741 8.22507 9.72147 8.19109 9.72596 8.08918C9.73495 7.6688 9.67655 7.74948 10.0314 7.74523C10.1887 7.72825 10.3459 7.73674 10.5121 7.73674Z" fill="white"/>
<path d="M15.31 7.47771C15.2381 7.52442 15.1662 7.55839 15.1123 7.59661C14.8562 7.77495 14.5912 7.95754 14.3351 8.13589C14.3037 8.15712 14.2767 8.18684 14.2453 8.20383C14.1195 8.25903 14.0656 8.22081 14.0701 8.07644C14.0791 7.56688 14.0072 7.70277 14.398 7.46497C14.5732 7.35457 14.7484 7.25691 14.9236 7.14226C15.0135 7.08705 15.0719 7.10404 15.1303 7.19321C15.1752 7.28663 15.2381 7.3758 15.31 7.47771Z" fill="white"/>
<path d="M23.3019 8.21659C23.1447 8.21659 22.9919 8.21659 22.8347 8.21659C22.7628 8.21659 22.7314 8.18687 22.7314 8.10619C22.7359 7.64334 22.6819 7.74101 23.0458 7.72827C23.2749 7.72402 23.513 7.72827 23.7466 7.72827C23.832 7.72827 23.8634 7.75799 23.8634 7.85566C23.8724 8.21659 23.8724 8.21659 23.5355 8.21659C23.4546 8.21659 23.3783 8.21659 23.3019 8.21659Z" fill="white"/>
<path d="M28.3558 9.04034C28.5714 9.04034 28.7197 9.22293 28.7197 9.4862C28.7197 9.75372 28.5624 9.91508 28.3064 9.92357C28.0683 9.92782 27.911 9.74098 27.911 9.46073C27.911 9.2017 28.0728 9.04884 28.3558 9.04034ZM28.504 9.47771C28.504 9.34608 28.4187 9.24841 28.3154 9.24417C28.1986 9.23992 28.1087 9.34183 28.1177 9.47771C28.1177 9.60935 28.2031 9.70276 28.3109 9.70276C28.4277 9.70276 28.504 9.60935 28.504 9.47771Z" fill="white"/>
<path d="M27.8167 8.2208C27.7314 8.2208 27.6505 8.2208 27.5696 8.2208C27.3315 8.2208 27.0979 8.2208 26.8553 8.2208C26.77 8.2208 26.7116 8.19957 26.7206 8.08492C26.7251 7.98301 26.7745 7.94904 26.8643 7.94904C27.0845 7.95328 27.3046 7.94904 27.5247 7.94904C27.664 7.94904 27.7583 8.03821 27.8167 8.2208Z" fill="white"/>
<path d="M25.292 8.21657C24.9775 8.21232 25.0135 8.28026 25.0135 7.91084C25.0135 7.73249 25.0135 7.73249 25.1752 7.73249C25.265 7.73249 25.3549 7.73674 25.4492 7.73249C25.5436 7.72825 25.575 7.76646 25.5705 7.86413C25.5705 7.87687 25.5705 7.89385 25.5705 7.90235C25.566 8.27602 25.611 8.21232 25.292 8.21657Z" fill="white"/>
<path d="M28.8005 9.0658C28.9578 9.0658 29.106 9.05307 29.2498 9.07005C29.2902 9.0743 29.3172 9.18045 29.3711 9.26538C29.2588 9.26538 29.1914 9.26113 29.124 9.26538C29.097 9.26538 29.0791 9.2951 29.0521 9.31209C29.0746 9.33332 29.0925 9.36304 29.1195 9.36729C29.1554 9.38003 29.2049 9.36304 29.2408 9.37154C29.2722 9.38428 29.3082 9.41825 29.3127 9.45222C29.3172 9.4692 29.2722 9.5329 29.2498 9.52865C29.0566 9.49892 29.0341 9.62207 29.0566 9.78767C29.0611 9.85561 29.0386 9.89808 28.9668 9.88958C28.9128 9.88534 28.8634 9.88958 28.805 9.88958C28.8994 9.62631 28.8994 9.36304 28.8005 9.0658Z" fill="white"/>
<path d="M30.6424 15.431C30.7367 15.5669 30.7412 15.707 30.6424 15.8216C30.3998 16.0976 30.0854 16.1656 29.7439 16.1486C29.8967 16.0339 30.0539 15.932 30.2067 15.8089C30.3504 15.6942 30.4942 15.5626 30.6424 15.431Z" fill="white"/>
<path d="M13.5939 8.22082C13.4771 8.22082 13.3872 8.22082 13.2974 8.22082C13.0818 8.22082 12.8616 8.22082 12.646 8.22082C12.5831 8.22082 12.5157 8.22082 12.5202 8.12315C12.5202 8.02973 12.5831 8.02124 12.6505 8.02124C12.8886 8.02124 13.1222 8.02124 13.3603 8.02124C13.4726 8.02124 13.531 8.08918 13.5939 8.22082Z" fill="white"/>
<path d="M21.6217 8.08918C21.2848 7.9533 21.159 7.65181 21.3208 7.39703C21.5858 7.54141 21.6846 7.77071 21.6217 8.08918Z" fill="white"/>
<path d="M28.504 9.47769C28.504 9.60932 28.4232 9.70274 28.3109 9.70274C28.1986 9.70274 28.1177 9.60932 28.1177 9.47769C28.1177 9.34181 28.2031 9.24414 28.3154 9.24414C28.4187 9.24839 28.504 9.34605 28.504 9.47769Z" fill="white"/>
<g clip-path="url(#clip0_2_10)">
<path d="M31.5 5.40477C30.7128 5.40477 29.8657 5.09693 29.0501 4.51449C28.4404 4.0791 28.064 3.64776 28.0483 3.62958C27.9839 3.5552 27.9839 3.44479 28.0483 3.37039C28.064 3.35225 28.4403 2.92087 29.0501 2.48548C29.8657 1.90309 30.7129 1.59521 31.5 1.59521C32.2872 1.59521 33.1344 1.90308 33.9499 2.48548C34.5596 2.92087 34.936 3.35223 34.9517 3.37039C35.0161 3.44477 35.0161 3.55518 34.9517 3.62958C34.936 3.64772 34.5597 4.0791 33.9499 4.51449C33.1344 5.09691 32.2872 5.40477 31.5 5.40477ZM28.4693 3.50001C28.6215 3.65518 28.9087 3.92805 29.2879 4.1979C29.8078 4.56784 30.6136 5.00888 31.5 5.00888C32.3864 5.00888 33.1922 4.56784 33.7121 4.1979C34.0912 3.92809 34.3784 3.6552 34.5307 3.50001C34.3785 3.34483 34.0913 3.07197 33.7121 2.80211C33.1922 2.43216 32.3864 1.99114 31.5 1.99114C30.6136 1.99114 29.8078 2.43216 29.2879 2.80211C28.9088 3.07192 28.6216 3.34479 28.4693 3.50001Z" fill="white"/>
<path d="M31.5 4.7273C30.8233 4.7273 30.2727 4.17674 30.2727 3.50003C30.2727 2.82332 30.8233 2.27277 31.5 2.27277C31.7976 2.27277 32.0847 2.38067 32.3084 2.57662C32.3906 2.64866 32.3989 2.77371 32.3268 2.85595C32.2548 2.93818 32.1297 2.94643 32.0475 2.87441C31.8961 2.74172 31.7016 2.66866 31.5 2.66866C31.0416 2.66866 30.6686 3.04162 30.6686 3.50003C30.6686 3.95844 31.0416 4.3314 31.5 4.3314C31.9584 4.3314 32.3314 3.95844 32.3314 3.50003C32.3314 3.39072 32.42 3.30208 32.5293 3.30208C32.6386 3.30208 32.7272 3.39072 32.7272 3.50003C32.7273 4.17674 32.1767 4.7273 31.5 4.7273Z" fill="white"/>
<path d="M31.5 3.89591C31.2817 3.89591 31.1041 3.71831 31.1041 3.50002C31.1041 3.28172 31.2817 3.10413 31.5 3.10413C31.7183 3.10413 31.8959 3.28172 31.8959 3.50002C31.8959 3.71831 31.7183 3.89591 31.5 3.89591Z" fill="white"/>
</g>
<defs>
<clipPath id="clip0_2_10">
<rect width="7" height="7" fill="white" transform="translate(28)"/>
</clipPath>
</defs>
</svg>
